<?xml version="1.0" encoding="utf-8"?>
<!-- Generator: Adobe Illustrator 19.1.0, SVG Export Plug-In . SVG Version: 6.00 Build 0)  -->
<svg version="1.1" id="Layer_1" xmlns="http://www.w3.org/2000/svg" xmlns:xlink="http://www.w3.org/1999/xlink" x="0px" y="0px"
	 viewBox="0 0 240 79.9" style="enable-background:new 0 0 240 79.9;" xml:space="preserve">
<style type="text/css">
	.st0{fill:#C4C4C4;}
	.st1{fill:#FFFFFF;}
	.st2{fill:#2AA18B;}
	.st3{fill:#231F20;}
	.st4{fill:#3EA5AD;}
	.st5{fill:#B2B2B2;}
	.st6{fill:#414141;}
	.st7{fill:#222222;}
	.st8{fill:#6D6E71;}
	.st9{fill:#404041;}
</style>
<g>
	<g>
		<path class="st1" d="M48.2,47.3c-1,1.3-4,4.7-9.6,4.7c-6.6,0-12-5-12-12s5.3-12,12-12c4.9,0.2,8.5,2.5,10.5,6l-1.3,0.3
			c-1.8-3.2-5.2-5.1-9.2-5.1c-6,0-10.7,4.3-10.7,10.8c0,6.4,4.7,10.8,10.7,10.8c4.9,0,8.6-3.1,9.6-5.2v-4.3h-7.5v-1.1h8.7v11.5h-1.2
			C48.2,48.3,48.3,47.3,48.2,47.3L48.2,47.3z"/>
		<path class="st1" d="M69.6,44.3H56.9l-3.2,7.3h-1.4l10.4-23.1h1.1l10.4,23.1h-1.4L69.6,44.3z M69.1,43.1l-4.8-10.7
			c-0.5-1.1-1-2.5-1.1-2.5h0c0,0-0.6,1.4-1.1,2.5l-4.8,10.7H69.1z"/>
		<path class="st1" d="M98.7,28.4v23.1h-1.3V38.7c0-2.6,0.1-8.1,0.1-8.1h0c0,0-0.9,1.6-1.9,3.5l-6.8,11.7h-0.7l-6.8-11.7
			c-1.1-1.9-1.9-3.5-1.9-3.5h0c0,0,0.1,5.5,0.1,8.1v12.8h-1.3V28.4h1.2l6.4,11.2c2.1,3.7,2.5,4.8,2.6,4.8h0c0,0,0.5-1.1,2.6-4.8
			l6.4-11.2H98.7z"/>
		<path class="st1" d="M120.3,50.3v1.2h-14.9V28.4h14.7v1.2h-13.5v8.8h10.9v1.2h-10.9v10.7H120.3z"/>
		<path class="st1" d="M140,28.4c5.2,0,8.4,2.7,8.4,7.1c0,4.4-3.1,7.1-8.4,7.1h-5v8.9h-1.3V28.4H140z M140,41.4
			c4.6,0,7.1-2.3,7.1-5.9c0-3.8-2.7-5.9-7.1-5.9h-5v11.8H140z"/>
		<path class="st1" d="M167.2,50.3v1.2h-14.4V28.4h1.3v21.9H167.2z"/>
		<path class="st1" d="M186.7,44.3H174l-3.2,7.3h-1.4l10.4-23.1h1.1l10.4,23.1h-1.4L186.7,44.3z M186.2,43.1l-4.8-10.7
			c-0.5-1.1-1-2.5-1.1-2.5h0c0,0-0.6,1.4-1.1,2.5l-4.8,10.7H186.2z"/>
		<path class="st1" d="M213.3,28.4v23.1h-1.2l-13-17.5c-2-2.7-2.6-3.6-2.6-3.6h0c0,0,0.1,2.5,0.1,5.5v15.6h-1.3V28.4h1.2l12.9,17.4
			c1.9,2.5,2.7,3.6,2.7,3.6h0c0,0-0.1-2.6-0.1-5.5V28.4H213.3z"/>
	</g>
</g>
</svg>
